<?xml version="1.0" encoding="utf-8"?>
<!-- Generator: Adobe Illustrator 25.2.3, SVG Export Plug-In . SVG Version: 6.00 Build 0)  -->
<svg version="1.1" id="Layer_1" xmlns="http://www.w3.org/2000/svg" xmlns:xlink="http://www.w3.org/1999/xlink" x="0px" y="0px"
	 viewBox="0 0 1484 315.2" style="enable-background:new 0 0 1484 315.2;" xml:space="preserve">
<style type="text/css">
	.st0{fill:#FF9414;stroke:#F79432;stroke-miterlimit:10;}
	.st1{fill:#191919;}
	.st2{fill:#FF9414;}
	.st3{fill:#FFFFFF;}
</style>
<g>
	<path class="st0" d="M371.3,258.6h15.5c4,0,7.6,0.8,10.7,2.4c3.1,1.6,5.5,3.9,7.2,6.7c1.7,2.9,2.6,6.2,2.6,9.9c0,3.7-0.9,7-2.6,9.9
		c-1.7,2.9-4.1,5.1-7.2,6.7c-3.1,1.6-6.6,2.4-10.7,2.4h-15.5V258.6z M386.5,293.2c3.3,0,6.3-0.7,8.8-2c2.5-1.3,4.4-3.2,5.8-5.5
		c1.4-2.3,2.1-5,2.1-8.1s-0.7-5.7-2.1-8.1c-1.4-2.3-3.3-4.2-5.8-5.5c-2.5-1.3-5.4-2-8.8-2h-11.3v31.1H386.5z"/>
	<path class="st0" d="M427,258.6h4v38.1h-4V258.6z"/>
	<path class="st0" d="M486.1,258.6v38.1h-3.3l-24.5-30.9v30.9h-4v-38.1h3.3l24.5,30.9v-30.9H486.1z"/>
	<path class="st0" d="M534.5,258.6H550c4,0,7.6,0.8,10.7,2.4c3.1,1.6,5.5,3.9,7.2,6.7c1.7,2.9,2.6,6.2,2.6,9.9c0,3.7-0.9,7-2.6,9.9
		c-1.7,2.9-4.1,5.1-7.2,6.7c-3.1,1.6-6.6,2.4-10.7,2.4h-15.5V258.6z M549.8,293.2c3.3,0,6.3-0.7,8.8-2c2.5-1.3,4.4-3.2,5.8-5.5
		c1.4-2.3,2.1-5,2.1-8.1s-0.7-5.7-2.1-8.1c-1.4-2.3-3.3-4.2-5.8-5.5c-2.5-1.3-5.4-2-8.8-2h-11.3v31.1H549.8z"/>
	<path class="st0" d="M590.3,258.6h4v38.1h-4V258.6z"/>
	<path class="st0" d="M644.4,277.6h3.9v14.5c-1.8,1.6-3.9,2.8-6.3,3.6c-2.4,0.8-5,1.3-7.7,1.3c-3.8,0-7.2-0.8-10.3-2.5
		c-3-1.7-5.4-4-7.2-6.9c-1.7-3-2.6-6.3-2.6-9.9c0-3.7,0.9-7,2.6-9.9c1.7-3,4.1-5.3,7.2-6.9c3-1.7,6.5-2.5,10.3-2.5
		c2.9,0,5.6,0.5,8,1.4c2.4,0.9,4.5,2.3,6.1,4.1l-2.5,2.6c-3-3-6.8-4.5-11.5-4.5c-3.1,0-5.9,0.7-8.3,2c-2.5,1.4-4.4,3.2-5.8,5.7
		c-1.4,2.4-2.1,5.1-2.1,8.1s0.7,5.7,2.1,8c1.4,2.4,3.4,4.3,5.8,5.7c2.5,1.4,5.2,2.1,8.3,2.1c3.9,0,7.2-1,10-2.9V277.6z"/>
	<path class="st0" d="M670.5,258.6h4v38.1h-4V258.6z"/>
	<path class="st0" d="M705.2,262.1h-13.4v-3.5h30.8v3.5h-13.4v34.6h-4V262.1z"/>
	<path class="st0" d="M761.9,286.5h-21.2l-4.6,10.2h-4.2l17.4-38.1h4l17.4,38.1h-4.2L761.9,286.5z M760.4,283.2l-9.1-20.4l-9.1,20.4
		H760.4z"/>
	<path class="st0" d="M787.9,258.6h4v34.6h21.3v3.5h-25.3V258.6z"/>
	<path class="st0" d="M857.7,293.2v3.5h-26.9v-38.1h26.1v3.5h-22.1v13.5h19.7v3.4h-19.7v14.1H857.7z"/>
	<path class="st0" d="M928.8,262.1c2.8,2.3,4.1,5.5,4.1,9.6c0,4.1-1.4,7.2-4.1,9.5c-2.8,2.3-6.6,3.5-11.4,3.5h-10.2v12h-4v-38.1
		h14.2C922.2,258.6,926,259.7,928.8,262.1z M925.9,278.6c2-1.6,3-4,3-7c0-3.1-1-5.4-3-7.1c-2-1.6-4.9-2.5-8.6-2.5h-10.1v19h10.1
		C921,281.1,923.9,280.3,925.9,278.6z"/>
	<path class="st0" d="M974.5,286.5h-21.2l-4.6,10.2h-4.2l17.4-38.1h4l17.4,38.1H979L974.5,286.5z M973,283.2l-9.1-20.4l-9.1,20.4
		H973z"/>
	<path class="st0" d="M1026.4,296.6l-8.7-12.2c-1,0.1-2,0.2-3,0.2h-10.2v12.1h-4v-38.1h14.2c4.9,0,8.7,1.2,11.4,3.5
		c2.8,2.3,4.1,5.5,4.1,9.6c0,3-0.8,5.5-2.3,7.5c-1.5,2-3.7,3.5-6.4,4.4l9.3,13H1026.4z M1023.2,278.6c2-1.7,3-4,3-7
		c0-3.1-1-5.4-3-7.1c-2-1.6-4.9-2.5-8.6-2.5h-10.1v19.1h10.1C1018.4,281.1,1021.2,280.3,1023.2,278.6z"/>
	<path class="st0" d="M1057.5,262.1h-13.4v-3.5h30.8v3.5h-13.4v34.6h-4V262.1z"/>
	<path class="st0" d="M1124,258.6v38.1h-3.3l-24.5-30.9v30.9h-4v-38.1h3.3l24.5,30.9v-30.9H1124z"/>
	<path class="st0" d="M1174.2,293.2v3.5h-26.9v-38.1h26.1v3.5h-22.1v13.5h19.7v3.4h-19.7v14.1H1174.2z"/>
	<path class="st0" d="M1220.5,296.6l-8.7-12.2c-1,0.1-2,0.2-3,0.2h-10.2v12.1h-4v-38.1h14.2c4.9,0,8.7,1.2,11.4,3.5
		c2.8,2.3,4.1,5.5,4.1,9.6c0,3-0.8,5.5-2.3,7.5c-1.5,2-3.7,3.5-6.4,4.4l9.3,13H1220.5z M1217.3,278.6c2-1.7,3-4,3-7
		c0-3.1-1-5.4-3-7.1c-2-1.6-4.9-2.5-8.6-2.5h-10.1v19.1h10.1C1212.4,281.1,1215.3,280.3,1217.3,278.6z"/>
</g>
<g>
	<path class="st1" d="M502.7,48.6v143.5h-33.2v-58.8h-65.2v58.8H371V48.6h33.2v56.6h65.2V48.6H502.7z"/>
	<path class="st1" d="M555.7,186.5c-9.2-4.9-16.4-11.6-21.6-20.2c-5.2-8.6-7.8-18.4-7.8-29.3c0-10.9,2.6-20.7,7.8-29.3
		c5.2-8.6,12.4-15.3,21.6-20.2c9.2-4.9,19.6-7.3,31.3-7.3c11.6,0,22,2.4,31.2,7.3c9.2,4.9,16.3,11.6,21.5,20.2
		c5.2,8.6,7.8,18.4,7.8,29.3c0,10.9-2.6,20.7-7.8,29.3c-5.2,8.6-12.4,15.3-21.5,20.2c-9.2,4.9-19.6,7.3-31.2,7.3
		C575.3,193.8,564.9,191.4,555.7,186.5z M607.1,159.3c5.3-5.5,7.9-13,7.9-22.2c0-9.3-2.6-16.7-7.9-22.2c-5.3-5.5-12-8.3-20.2-8.3
		c-8.2,0-15,2.8-20.3,8.3c-5.3,5.5-8,13-8,22.2c0,9.3,2.7,16.7,8,22.2c5.3,5.5,12.1,8.3,20.3,8.3
		C595.1,167.6,601.9,164.8,607.1,159.3z"/>
	<path class="st1" d="M668.8,40h32v152.1h-32V40z"/>
	<path class="st1" d="M842.8,40v152.1h-30.6v-12.7c-7.9,9.6-19.4,14.4-34.4,14.4c-10.4,0-19.8-2.3-28.2-7
		c-8.4-4.6-15-11.3-19.8-19.9c-4.8-8.6-7.2-18.6-7.2-29.9c0-11.3,2.4-21.3,7.2-29.9c4.8-8.6,11.4-15.2,19.8-19.9
		c8.4-4.6,17.8-7,28.2-7c14.1,0,25.1,4.4,33,13.3V40H842.8z M803.5,159.3c5.3-5.5,8-13,8-22.2c0-9.3-2.7-16.7-8-22.2
		c-5.3-5.5-12-8.3-20.1-8.3c-8.2,0-15,2.8-20.3,8.3c-5.3,5.5-8,13-8,22.2c0,9.3,2.7,16.7,8,22.2c5.3,5.5,12.1,8.3,20.3,8.3
		C791.4,167.6,798.1,164.8,803.5,159.3z"/>
	<path class="st1" d="M979.8,146h-83.5c1.5,6.8,5.1,12.2,10.7,16.2c5.6,4,12.6,5.9,20.9,5.9c5.7,0,10.8-0.9,15.3-2.6
		c4.4-1.7,8.6-4.4,12.4-8.1l17,18.5c-10.4,11.9-25.6,17.8-45.5,17.8c-12.4,0-23.4-2.4-33-7.3c-9.6-4.9-17-11.6-22.1-20.2
		c-5.2-8.6-7.8-18.4-7.8-29.3c0-10.8,2.6-20.5,7.7-29.2C877,99.1,884,92.4,893,87.5c9-4.9,19-7.3,30-7.3c10.8,0,20.6,2.3,29.3,7
		c8.7,4.6,15.6,11.3,20.6,20c5,8.7,7.5,18.8,7.5,30.2C980.4,137.8,980.2,140.7,979.8,146z M905,110.6c-4.9,4.1-7.9,9.7-9,16.8h54.3
		c-1.1-7-4.1-12.5-9-16.7c-4.9-4.2-10.9-6.3-18-6.3C916,104.4,909.9,106.5,905,110.6z"/>
	<path class="st1" d="M1047.8,84.3c6.5-2.7,14-4.1,22.5-4.1v29.5c-3.6-0.3-5.9-0.4-7.2-0.4c-9.2,0-16.3,2.6-21.5,7.7
		c-5.2,5.1-7.8,12.8-7.8,23.1v52.1h-32V81.9h30.6v14.6C1036.1,91.1,1041.3,87.1,1047.8,84.3z"/>
	<path class="st1" d="M1196.8,48.6v143.5h-33.2V75.3h-28.7V48.6H1196.8z"/>
	<path class="st1" d="M1251.5,185.8c-9.3-5.9-16.6-14.4-21.8-25.5c-5.3-11.1-7.9-24.4-7.9-39.9c0-15.4,2.6-28.7,7.9-39.9
		c5.3-11.1,12.5-19.6,21.8-25.5c9.3-5.9,19.9-8.8,31.8-8.8s22.5,2.9,31.8,8.8c9.3,5.9,16.6,14.4,21.8,25.5
		c5.3,11.1,7.9,24.4,7.9,39.9c0,15.4-2.6,28.7-7.9,39.9c-5.3,11.1-12.5,19.7-21.8,25.5c-9.3,5.9-19.9,8.8-31.8,8.8
		S1260.8,191.7,1251.5,185.8z M1303.9,155.3c5-7.5,7.5-19.1,7.5-34.9c0-15.7-2.5-27.3-7.5-34.9c-5-7.5-11.9-11.3-20.6-11.3
		c-8.6,0-15.4,3.8-20.4,11.3c-5,7.5-7.5,19.1-7.5,34.9c0,15.7,2.5,27.3,7.5,34.9c5,7.5,11.8,11.3,20.4,11.3
		C1292,166.5,1298.9,162.8,1303.9,155.3z"/>
	<path class="st1" d="M1390.7,185.8c-9.3-5.9-16.6-14.4-21.8-25.5c-5.3-11.1-7.9-24.4-7.9-39.9c0-15.4,2.6-28.7,7.9-39.9
		c5.3-11.1,12.5-19.6,21.8-25.5c9.3-5.9,19.9-8.8,31.8-8.8c11.9,0,22.5,2.9,31.8,8.8c9.3,5.9,16.6,14.4,21.8,25.5
		c5.3,11.1,7.9,24.4,7.9,39.9c0,15.4-2.6,28.7-7.9,39.9c-5.3,11.1-12.5,19.7-21.8,25.5c-9.3,5.9-19.9,8.8-31.8,8.8
		C1410.6,194.6,1400,191.7,1390.7,185.8z M1443.1,155.3c5-7.5,7.5-19.1,7.5-34.9c0-15.7-2.5-27.3-7.5-34.9
		c-5-7.5-11.9-11.3-20.6-11.3c-8.6,0-15.4,3.8-20.4,11.3c-5,7.5-7.5,19.1-7.5,34.9c0,15.7,2.5,27.3,7.5,34.9
		c5,7.5,11.8,11.3,20.4,11.3C1431.3,166.5,1438.1,162.8,1443.1,155.3z"/>
</g>
<circle class="st2" cx="157.6" cy="157.6" r="157.6"/>
<g>
	<g>
		<path class="st3" d="M258.1,164.1c0-6.5-3.8-13.2-9.8-17.7c3.5-3.6,5.4-8.4,5.4-13.4c0-10.7-8.7-19.4-19.4-19.4l-32-0.8
			c-13-0.1-42.6,2-48.4,2.5l-0.1,0c-0.5,0-1-0.4-1.1-0.7c0.3-0.7,1.3-2.5,2.5-4.4l7.1-10.8c5.9-8.9,8.7-13.7,9.5-26.1
			c0.1-1.4,0.4-8.6,0-14.6c-0.7-8.5-9.1-15.4-18.9-15.4c-7.6,0-16.2,4.3-18,12.5c-0.6,3-1.2,5.5-1.5,7.2c-0.3,1.3-0.4,2-0.5,2.3
			c-1.6,4.7-3.5,9.8-6.3,14.3c-1.9,3.1-14,11.3-24.7,18.6c-10.9,7.4-23.2,15.8-32.9,23.8c-0.1,0-5.1,4.5-10,7.5
			c-2,1.2-2.7,3.9-1.4,5.9c1.3,2,3.9,2.7,5.9,1.4c4.9-3,9.7-7.1,11.1-8.3c9.2-7.6,21.4-15.9,32.1-23.2
			c15.5-10.6,24.5-16.8,27.2-21.1c3.3-5.4,5.4-11.1,7.3-16.4l0.1-0.2c0,0,0.9-4.1,2.1-10c0.7-3.5,5.4-5.7,9.6-5.7
			c4.7,0,9.9,3,10.3,7.5c0.4,5.6,0.1,12.6,0,13.4c-0.6,10.1-2.4,13.3-8,21.8l-7.1,10.8c-3.6,5.4-4,7.5-4,8.7c0,5.4,4.5,9.7,10,9.7
			h0.2c0.3,0,34.4-2.7,48-2.5l32,0.8c6,0,10.9,4.8,10.9,10.8c0,4.3-2.6,8.2-6.6,9.9l-10.5,4.4l10.8,3.6c5.1,1.7,10.7,7.5,10.7,13.2
			c0,4.8-2.7,9.2-6.9,11.4l-9.2,4.7l8.4,5.6c2.7,2.4,4.3,6,4.3,9.6c0,5.7-3.7,10.7-9.2,12.4l-4.8,2.8l0.6,5.6l1.4,1.1
			c2.2,1.8,3.5,5.1,3.6,8.9c0.1,7-8.1,8.6-23.3,9.1l-1,0c0.4-0.3,0.8-0.6,1.1-0.9c10.2-8.6,15.8-20.4,15.8-33.4
			c0-21.7-15.1-39.4-33.6-39.4c-15,0-27.7,11.6-32,27.6c-4.3-16-17-27.6-32-27.6c-18.5,0-33.6,17.7-33.6,39.4
			c0,13,3.8,23.6,10.9,30.4c0.4,0.4,1.9,1.8,4.7,3.7c-6.6,0.4-14.9-0.3-20.2-5.3c-6.1-5.7-7.4-16.4-3.8-31.7
			c2.4-10.2,5.5-22,8.9-34.3c5.5-14.9,9.4-26.3,11.5-34.1l0.1-0.4c0.1-1.3,0-4.4-1.5-6l-1.8-1.8l-1.7,0.5c-0.9,0-1.8,0.4-2.5,1
			l-21.1,14.1l-0.2,0.2c-0.9,0.8-1.4,1.8-1.5,3c-0.1,1.1,0.3,2.3,1.1,3.1c1.5,1.7,4.3,1.9,6,0.5l10.5-7c-1.3,4.3-2.8,9.6-4.6,16.1
			c-0.6,2.2-1.3,4.6-2,7.1c-12.8,34.3-30.7,76.3-30.8,76.7c-0.5,1.1-0.5,2.2,0,3.3c0.4,1.1,1.3,1.9,2.3,2.4c1.1,0.5,2.2,0.5,3.3,0
			c1.1-0.4,1.9-1.3,2.3-2.3c0.2-0.6,5-11.6,11.2-26.9c0,10,2.9,17.6,8.5,22.9c12.7,11.9,34.7,6.8,39.3,5.5
			c9.6,3.5,20.6,5.2,32.7,5.2c5.5,0,11.2-0.4,17.1-1.1c5.9-0.7,12-1.8,18.3-3.2c8.2,1.7,15.6,1.3,15.9,1.3l2.9-0.1
			c11.9-0.4,31.7-1,31.6-17.8c0-4.3-1.2-8.3-3.3-11.5c7.2-3.6,11.8-10.9,11.8-19.2c0-5.2-1.9-10.1-5.3-14.1
			C254.9,177.3,258.1,170.9,258.1,164.1z M171.7,201c0-17,11.2-30.8,25-30.8c13.8,0,25,13.8,25,30.8c0,14.1-8,22.8-12.7,26.8
			c-2.5,2.1-8.6,4.5-13.3,5.9c-4.1-1-7.3-2.5-9.6-4.4l-3.1-2.6C175.9,221,171.7,211.4,171.7,201z M115.9,225.3L115.9,225.3
			c-5.5-5.3-8.3-13.7-8.3-24.3c0-17,11.2-30.8,25-30.8c13.8,0,25,13.8,25,30.8c0,11.2-4.4,21.1-11.6,26c-5.2,3.5-13.4,5.2-17.1,5.8
			C120.7,229.5,116.7,226,115.9,225.3z M145.2,237.1c2.1-0.9,3.9-1.9,5.6-3c6.7-4.5,11.6-12.1,13.9-21.1c2.2,8.2,6.7,15.4,12.8,20.4
			l3,2.6c0.3,0.2,0.6,0.5,0.9,0.7C168.2,238.6,156.1,238.8,145.2,237.1z"/>
	</g>
</g>
</svg>
