<svg id="Group_145" data-name="Group 145" xmlns="http://www.w3.org/2000/svg" width="260.423" height="55.32" viewBox="0 0 260.423 55.32">
  <g id="Group_68" data-name="Group 68" transform="translate(65.151 45.32)">
    <path id="Path_54" data-name="Path 54" d="M207.671,149.023h2.72a3.348,3.348,0,1,1,0,6.681h-2.72Zm2.682,6.07a2.736,2.736,0,1,0,0-5.459h-1.975v5.459Z" transform="translate(-207.671 -148.966)" fill="#fff"/>
    <path id="Path_55" data-name="Path 55" d="M237.6,149.023h.706V155.7H237.6Z" transform="translate(-227.807 -148.966)" fill="#fff"/>
    <path id="Path_56" data-name="Path 56" d="M257.821,149.023V155.7h-.582l-4.295-5.421V155.7h-.706v-6.681h.582l4.3,5.421v-5.421Z" transform="translate(-237.659 -148.966)" fill="#fff"/>
    <path id="Path_57" data-name="Path 57" d="M295.261,149.023h2.72a3.348,3.348,0,1,1,0,6.681h-2.72Zm2.682,6.07a2.736,2.736,0,1,0,0-5.459h-1.976v5.459Z" transform="translate(-266.608 -148.966)" fill="#fff"/>
    <path id="Path_58" data-name="Path 58" d="M325.186,149.023h.706V155.7h-.706Z" transform="translate(-286.744 -148.966)" fill="#fff"/>
    <path id="Path_59" data-name="Path 59" d="M343.316,152.247h.677v2.548a3.685,3.685,0,0,1-2.452.85,3.4,3.4,0,1,1,.009-6.8,3.292,3.292,0,0,1,2.482.964l-.439.448a2.821,2.821,0,1,0-2.023,4.753,2.891,2.891,0,0,0,1.747-.515Z" transform="translate(-295.379 -148.849)" fill="#fff"/>
    <path id="Path_60" data-name="Path 60" d="M368.208,149.023h.706V155.7h-.706Z" transform="translate(-315.692 -148.966)" fill="#fff"/>
    <path id="Path_61" data-name="Path 61" d="M381.988,149.634H379.64v-.611h5.4v.611h-2.348v6.07h-.706Z" transform="translate(-323.385 -148.966)" fill="#fff"/>
    <path id="Path_62" data-name="Path 62" d="M406.4,153.919h-3.722l-.8,1.785h-.735l3.054-6.681h.7l3.054,6.681H407.2Zm-.257-.572-1.6-3.588-1.6,3.588Z" transform="translate(-337.849 -148.966)" fill="#fff"/>
    <path id="Path_63" data-name="Path 63" d="M431.151,149.023h.707v6.07H435.6v.611h-4.447Z" transform="translate(-358.045 -148.966)" fill="#fff"/>
    <path id="Path_64" data-name="Path 64" d="M458.888,155.093v.611h-4.724v-6.681h4.581v.611H454.87v2.376h3.455v.6H454.87v2.481Z" transform="translate(-373.53 -148.966)" fill="#fff"/>
    <path id="Path_65" data-name="Path 65" d="M498.215,151.314c0,1.422-1.031,2.281-2.729,2.281h-1.794V155.7h-.707v-6.681h2.5C497.184,149.023,498.215,149.882,498.215,151.314Zm-.706,0c0-1.069-.706-1.679-2.043-1.679h-1.775v3.341h1.775C496.8,152.975,497.509,152.364,497.509,151.314Z" transform="translate(-399.651 -148.966)" fill="#fff"/>
    <path id="Path_66" data-name="Path 66" d="M520.44,153.919h-3.722l-.8,1.785h-.735l3.054-6.681h.7l3.054,6.681h-.745Zm-.258-.572-1.6-3.588-1.6,3.588Z" transform="translate(-414.587 -148.966)" fill="#fff"/>
    <path id="Path_67" data-name="Path 67" d="M549.757,155.7l-1.527-2.147a4.792,4.792,0,0,1-.535.029H545.9V155.7h-.706v-6.681h2.5c1.7,0,2.73.859,2.73,2.291a2.071,2.071,0,0,1-1.527,2.1l1.632,2.291Zm-.039-4.39c0-1.069-.706-1.679-2.042-1.679H545.9v3.35h1.775C549.013,152.984,549.718,152.364,549.718,151.314Z" transform="translate(-434.782 -148.966)" fill="#fff"/>
    <path id="Path_68" data-name="Path 68" d="M570.963,149.634h-2.348v-.611h5.4v.611h-2.348v6.07h-.706Z" transform="translate(-450.541 -148.966)" fill="#fff"/>
    <path id="Path_69" data-name="Path 69" d="M599.983,149.023V155.7H599.4l-4.295-5.421V155.7H594.4v-6.681h.582l4.3,5.421v-5.421Z" transform="translate(-467.891 -148.966)" fill="#fff"/>
    <path id="Path_70" data-name="Path 70" d="M628.671,155.093v.611h-4.724v-6.681h4.581v.611h-3.875v2.376h3.455v.6h-3.455v2.481Z" transform="translate(-487.772 -148.966)" fill="#fff"/>
    <path id="Path_71" data-name="Path 71" d="M653.856,155.7l-1.527-2.147a4.779,4.779,0,0,1-.534.029H650V155.7h-.706v-6.681h2.5c1.7,0,2.729.859,2.729,2.291a2.071,2.071,0,0,1-1.527,2.1l1.632,2.291Zm-.038-4.39c0-1.069-.706-1.679-2.042-1.679H650v3.35h1.775C653.111,152.984,653.818,152.364,653.818,151.314Z" transform="translate(-504.828 -148.966)" fill="#fff"/>
  </g>
  <g id="Group_69" data-name="Group 69" transform="translate(65.109 7.025)">
    <path id="Path_72" data-name="Path 72" d="M230.646,36.405V61.594h-5.83V51.266H213.373V61.594h-5.829V36.405h5.829v9.932h11.443V36.405Z" transform="translate(-207.544 -34.894)" fill="#fff"/>
    <path id="Path_73" data-name="Path 73" d="M290.812,63.313c0-5.829,4.5-9.968,10.651-9.968s10.615,4.138,10.615,9.968-4.462,9.968-10.615,9.968S290.812,69.142,290.812,63.313Zm15.581,0c0-3.346-2.123-5.362-4.93-5.362s-4.966,2.015-4.966,5.362,2.159,5.362,4.966,5.362S306.393,66.659,306.393,63.313Z" transform="translate(-263.573 -46.292)" fill="#fff"/>
    <path id="Path_74" data-name="Path 74" d="M367.259,31.785h5.613v26.7h-5.613Z" transform="translate(-315.012 -31.785)" fill="#fff"/>
    <path id="Path_75" data-name="Path 75" d="M417.275,31.785v26.7h-5.362V56.254a7.447,7.447,0,0,1-6.045,2.519c-5.47,0-9.68-3.886-9.68-9.968s4.21-9.968,9.68-9.968a7.438,7.438,0,0,1,5.793,2.339V31.785Zm-5.506,17.02c0-3.346-2.159-5.362-4.93-5.362-2.807,0-4.966,2.015-4.966,5.362s2.159,5.362,4.966,5.362C409.61,54.167,411.769,52.152,411.769,48.805Z" transform="translate(-334.478 -31.785)" fill="#fff"/>
    <path id="Path_76" data-name="Path 76" d="M492.379,64.9H477.733c.54,2.411,2.591,3.886,5.542,3.886a6.563,6.563,0,0,0,4.858-1.871l2.986,3.239c-1.8,2.051-4.5,3.131-7.988,3.131-6.693,0-11.047-4.21-11.047-9.968,0-5.793,4.426-9.968,10.327-9.968,5.686,0,10.076,3.814,10.076,10.039C492.487,63.816,492.415,64.428,492.379,64.9Zm-14.717-3.275H487.2a4.835,4.835,0,0,0-9.536,0Z" transform="translate(-385.546 -46.292)" fill="#fff"/>
    <path id="Path_77" data-name="Path 77" d="M557.911,53.345v5.182c-.468-.036-.828-.072-1.26-.072-3.095,0-5.146,1.691-5.146,5.4v9.14h-5.614V53.633h5.362v2.555C552.621,54.317,554.924,53.345,557.911,53.345Z" transform="translate(-435.21 -46.292)" fill="#fff"/>
    <path id="Path_78" data-name="Path 78" d="M628.145,36.405V61.594h-5.829V41.083h-5.038V36.405Z" transform="translate(-483.243 -34.894)" fill="#fff"/>
    <path id="Path_79" data-name="Path 79" d="M663.917,48.111c0-8.312,4.606-13.026,10.8-13.026,6.225,0,10.8,4.714,10.8,13.026s-4.57,13.026-10.8,13.026C668.523,61.138,663.917,56.423,663.917,48.111Zm15.725,0c0-5.721-2.015-8.1-4.93-8.1-2.879,0-4.894,2.375-4.894,8.1s2.015,8.1,4.894,8.1C677.627,56.207,679.642,53.833,679.642,48.111Z" transform="translate(-514.626 -34.005)" fill="#fff"/>
    <path id="Path_80" data-name="Path 80" d="M738.6,48.111c0-8.312,4.606-13.026,10.8-13.026,6.225,0,10.8,4.714,10.8,13.026s-4.57,13.026-10.8,13.026C743.21,61.138,738.6,56.423,738.6,48.111Zm15.725,0c0-5.721-2.015-8.1-4.93-8.1-2.879,0-4.894,2.375-4.894,8.1s2.015,8.1,4.894,8.1C752.314,56.207,754.329,53.833,754.329,48.111Z" transform="translate(-564.88 -34.005)" fill="#fff"/>
  </g>
  <path id="Path_81" data-name="Path 81" d="M72.972,111.568a8.248,8.248,0,0,1-3.006,1.011,7.368,7.368,0,0,1-2.264-1.305l0,0A5.778,5.778,0,0,1,66.24,107c0-2.98,1.966-5.4,4.38-5.4s4.387,2.424,4.387,5.4A5.487,5.487,0,0,1,72.972,111.568Z" transform="translate(-47.355 -71.737)" fill="#fff"/>
  <path id="Path_82" data-name="Path 82" d="M92.626,128.593l.154.118a20.783,20.783,0,0,1-6.35.082,6.05,6.05,0,0,0,.975-.527,6.322,6.322,0,0,0,2.434-3.706,6.887,6.887,0,0,0,2.254,3.575Z" transform="translate(-60.94 -87.186)" fill="#fff"/>
  <path id="Path_83" data-name="Path 83" d="M109.387,107a6.1,6.1,0,0,1-2.231,4.707,8.272,8.272,0,0,1-2.332,1.04,4.347,4.347,0,0,1-1.681-.769l-.536-.458A5.8,5.8,0,0,1,100.62,107c0-2.98,1.966-5.4,4.383-5.4S109.387,104.024,109.387,107Z" transform="translate(-70.488 -71.737)" fill="#fff"/>
  <path id="Path_84" data-name="Path 84" d="M36.172,10.31A27.66,27.66,0,1,0,63.83,37.972,27.662,27.662,0,0,0,36.172,10.31ZM53.218,44.593a3.746,3.746,0,0,1-2.064,3.366,3.836,3.836,0,0,1,.572,2.022c.016,2.938-3.471,3.052-5.551,3.121l-.5.02a12.218,12.218,0,0,1-2.784-.236,31.7,31.7,0,0,1-3.206.569,25.2,25.2,0,0,1-3,.19,16.93,16.93,0,0,1-5.744-.919c-.811.219-4.665,1.112-6.9-.975a5.287,5.287,0,0,1-1.5-4.024c-1.1,2.682-1.927,4.619-1.973,4.724a.758.758,0,0,1-1.4-.016.764.764,0,0,1,.007-.582c.033-.065,3.176-7.439,5.414-13.451.128-.442.242-.857.35-1.25.317-1.145.576-2.071.811-2.833l-1.848,1.23a.777.777,0,0,1-1.047-.079.755.755,0,0,1-.19-.55.764.764,0,0,1,.255-.52l.036-.029,3.7-2.467a.758.758,0,0,1,.438-.167l.308-.092.321.311A1.513,1.513,0,0,1,28,33l-.013.072c-.366,1.364-1.047,3.376-2.018,5.983-.608,2.146-1.151,4.226-1.57,6.016-.631,2.692-.4,4.567.674,5.571a4.822,4.822,0,0,0,3.54.922,5.434,5.434,0,0,1-.815-.648,7.2,7.2,0,0,1-1.917-5.342c0-3.814,2.646-6.915,5.895-6.915A6.1,6.1,0,0,1,37.4,43.5a6.1,6.1,0,0,1,5.623-4.841c3.248,0,5.895,3.1,5.895,6.915a7.559,7.559,0,0,1-2.767,5.865c-.059.052-.128.1-.2.154l.17-.007c2.66-.085,4.1-.366,4.089-1.6a2.007,2.007,0,0,0-.628-1.557l-.242-.2-.1-.981.841-.491a2.263,2.263,0,0,0,.86-3.86l-1.472-.978,1.609-.818a2.259,2.259,0,0,0,1.214-2,2.849,2.849,0,0,0-1.878-2.319l-1.891-.635,1.838-.779a1.888,1.888,0,0,0-.743-3.631l-5.617-.15c-2.385-.029-8.358.429-8.42.435H35.56a1.734,1.734,0,0,1-1.75-1.711c0-.2.075-.579.707-1.524l1.253-1.9a6.2,6.2,0,0,0,1.407-3.831,19.26,19.26,0,0,0,0-2.345c-.062-.788-.981-1.315-1.8-1.315-.72,0-1.547.37-1.678.991-.216,1.021-.373,1.747-.373,1.747l-.013.039a14.03,14.03,0,0,1-1.273,2.882c-.478.769-2.045,1.855-4.769,3.71-1.881,1.282-4.014,2.731-5.633,4.069A16.5,16.5,0,0,1,19.688,34.3a.756.756,0,1,1-.792-1.289,15.114,15.114,0,0,0,1.75-1.315c1.7-1.4,3.863-2.875,5.771-4.174a27.6,27.6,0,0,0,4.334-3.255,12.577,12.577,0,0,0,1.109-2.512c.01-.062.036-.177.085-.409.065-.3.16-.746.272-1.266a3.117,3.117,0,0,1,3.157-2.188,3.222,3.222,0,0,1,3.311,2.7,21.971,21.971,0,0,1,0,2.558,7.686,7.686,0,0,1-1.659,4.573l-1.253,1.9a7.452,7.452,0,0,0-.448.762.21.21,0,0,0,.19.128l.016,0c1.021-.075,6.219-.455,8.5-.432l5.61.15a3.408,3.408,0,0,1,3.4,3.4,3.364,3.364,0,0,1-.955,2.359A4.037,4.037,0,0,1,53.8,39.107a3.78,3.78,0,0,1-1.515,3.019A3.741,3.741,0,0,1,53.218,44.593Z" transform="translate(-8.51 -10.31)" fill="#fff"/>
</svg>
