<svg xmlns="http://www.w3.org/2000/svg" width="181.865" height="38.631" viewBox="0 0 181.865 38.631">
  <g id="Group_180" data-name="Group 180" transform="translate(0.486 -10.314)">
    <g id="Group_176" data-name="Group 176" transform="translate(45.011 41.962)">
      <path id="Path_153" data-name="Path 153" d="M198.671,149.023h1.9a2.338,2.338,0,1,1,0,4.666h-1.9Zm1.873,4.239a1.911,1.911,0,1,0,0-3.812h-1.38v3.812Z" transform="translate(-198.671 -148.983)" fill="#ff9414"/>
      <path id="Path_154" data-name="Path 154" d="M228.6,149.023h.493v4.666H228.6Z" transform="translate(-221.76 -148.983)" fill="#ff9414"/>
      <path id="Path_155" data-name="Path 155" d="M247.137,149.023v4.666h-.407l-3-3.786v3.786h-.493v-4.666h.407l3.006,3.786v-3.786Z" transform="translate(-233.057 -148.983)" fill="#ff9414"/>
      <path id="Path_156" data-name="Path 156" d="M286.261,149.023h1.9a2.338,2.338,0,1,1,0,4.666h-1.9Zm1.873,4.239a1.911,1.911,0,1,0,0-3.812h-1.38v3.812Z" transform="translate(-266.251 -148.983)" fill="#ff9414"/>
      <path id="Path_157" data-name="Path 157" d="M316.186,149.023h.493v4.666h-.493Z" transform="translate(-289.34 -148.983)" fill="#ff9414"/>
      <path id="Path_158" data-name="Path 158" d="M332.718,151.222h.473V153a2.573,2.573,0,0,1-1.713.593,2.374,2.374,0,1,1,.006-4.745,2.3,2.3,0,0,1,1.733.673l-.307.313a1.97,1.97,0,1,0-1.413,3.319,2.019,2.019,0,0,0,1.22-.36Z" transform="translate(-299.241 -148.849)" fill="#ff9414"/>
      <path id="Path_159" data-name="Path 159" d="M359.208,149.023h.493v4.666h-.493Z" transform="translate(-322.534 -148.983)" fill="#ff9414"/>
      <path id="Path_160" data-name="Path 160" d="M372.28,149.45h-1.64v-.427h3.772v.427h-1.64v4.239h-.493Z" transform="translate(-331.354 -148.983)" fill="#ff9414"/>
      <path id="Path_161" data-name="Path 161" d="M395.809,152.442h-2.6l-.56,1.246h-.513l2.133-4.666h.487l2.133,4.666h-.52Zm-.18-.4-1.12-2.506-1.12,2.506Z" transform="translate(-347.94 -148.983)" fill="#ff9414"/>
      <path id="Path_162" data-name="Path 162" d="M422.151,149.023h.493v4.239h2.612v.426h-3.106Z" transform="translate(-371.098 -148.983)" fill="#ff9414"/>
      <path id="Path_163" data-name="Path 163" d="M448.463,153.262v.426h-3.3v-4.666h3.2v.427h-2.706v1.659h2.413v.42h-2.413v1.733Z" transform="translate(-388.853 -148.983)" fill="#ff9414"/>
      <path id="Path_164" data-name="Path 164" d="M487.637,150.623c0,.993-.72,1.593-1.906,1.593h-1.253v1.473h-.493v-4.666h1.746C486.918,149.023,487.637,149.623,487.637,150.623Zm-.493,0c0-.746-.493-1.173-1.426-1.173h-1.239v2.333h1.239C486.651,151.783,487.144,151.356,487.144,150.623Z" transform="translate(-418.806 -148.983)" fill="#ff9414"/>
      <path id="Path_165" data-name="Path 165" d="M509.854,152.442h-2.6l-.56,1.246h-.513l2.133-4.666h.486l2.133,4.666h-.52Zm-.18-.4-1.12-2.506-1.12,2.506Z" transform="translate(-435.932 -148.983)" fill="#ff9414"/>
      <path id="Path_166" data-name="Path 166" d="M539.381,153.689l-1.066-1.5a3.346,3.346,0,0,1-.373.02h-1.253v1.479H536.2v-4.666h1.746c1.186,0,1.906.6,1.906,1.6a1.446,1.446,0,0,1-1.066,1.466l1.14,1.6Zm-.027-3.066c0-.746-.493-1.173-1.426-1.173h-1.24v2.34h1.24C538.861,151.789,539.354,151.356,539.354,150.623Z" transform="translate(-459.089 -148.983)" fill="#ff9414"/>
      <path id="Path_167" data-name="Path 167" d="M561.255,149.45h-1.64v-.427h3.773v.427h-1.64v4.239h-.493Z" transform="translate(-477.158 -148.983)" fill="#ff9414"/>
      <path id="Path_168" data-name="Path 168" d="M589.3,149.023v4.666h-.407l-3-3.786v3.786H585.4v-4.666h.407l3.006,3.786v-3.786Z" transform="translate(-497.053 -148.983)" fill="#ff9414"/>
      <path id="Path_169" data-name="Path 169" d="M618.246,153.262v.426h-3.3v-4.666h3.2v.427H615.44v1.659h2.413v.42H615.44v1.733Z" transform="translate(-519.85 -148.983)" fill="#ff9414"/>
      <path id="Path_170" data-name="Path 170" d="M643.48,153.689l-1.066-1.5a3.339,3.339,0,0,1-.373.02h-1.253v1.479h-.493v-4.666h1.746c1.187,0,1.906.6,1.906,1.6a1.446,1.446,0,0,1-1.066,1.466l1.14,1.6Zm-.026-3.066c0-.746-.493-1.173-1.427-1.173h-1.24v2.34h1.24C642.96,151.789,643.453,151.356,643.453,150.623Z" transform="translate(-539.406 -148.983)" fill="#ff9414"/>
    </g>
    <g id="Group_177" data-name="Group 177" transform="translate(44.982 15.219)">
      <path id="Path_171" data-name="Path 171" d="M214.677,36.4V54h-4.071V46.783h-7.991V54h-4.071V36.4h4.071v6.936h7.991V36.4Z" transform="translate(-198.544 -35.35)" fill="#191919"/>
      <path id="Path_172" data-name="Path 172" d="M281.812,60.306c0-4.071,3.141-6.961,7.438-6.961s7.413,2.89,7.413,6.961-3.116,6.961-7.413,6.961S281.812,64.377,281.812,60.306Zm10.881,0a3.467,3.467,0,1,0-6.911,0,3.467,3.467,0,1,0,6.911,0Z" transform="translate(-262.79 -48.42)" fill="#191919"/>
      <path id="Path_173" data-name="Path 173" d="M358.259,31.785h3.92V50.431h-3.92Z" transform="translate(-321.773 -31.785)" fill="#191919"/>
      <path id="Path_174" data-name="Path 174" d="M401.914,31.785V50.431h-3.744V48.873a5.2,5.2,0,0,1-4.222,1.759,6.572,6.572,0,0,1-6.76-6.961,6.572,6.572,0,0,1,6.76-6.961,5.194,5.194,0,0,1,4.046,1.633V31.785Zm-3.845,11.886a3.466,3.466,0,1,0-6.91,0,3.466,3.466,0,1,0,6.91,0Z" transform="translate(-344.093 -31.785)" fill="#191919"/>
      <path id="Path_175" data-name="Path 175" d="M477.257,61.411H467.029c.377,1.684,1.809,2.714,3.87,2.714a4.583,4.583,0,0,0,3.392-1.307l2.085,2.262a7.081,7.081,0,0,1-5.579,2.186c-4.674,0-7.715-2.94-7.715-6.961a6.883,6.883,0,0,1,7.212-6.961,6.693,6.693,0,0,1,7.036,7.011C477.333,60.658,477.282,61.085,477.257,61.411Zm-10.278-2.287h6.659a3.377,3.377,0,0,0-6.659,0Z" transform="translate(-402.651 -48.42)" fill="#191919"/>
      <path id="Path_176" data-name="Path 176" d="M545.285,53.345v3.619c-.327-.025-.578-.05-.88-.05-2.161,0-3.594,1.181-3.594,3.769v6.383h-3.92V53.546h3.744V55.33A5.456,5.456,0,0,1,545.285,53.345Z" transform="translate(-459.597 -48.42)" fill="#191919"/>
      <path id="Path_177" data-name="Path 177" d="M615.867,36.4V54H611.8V39.672h-3.518V36.4Z" transform="translate(-514.675 -35.35)" fill="#191919"/>
      <path id="Path_178" data-name="Path 178" d="M654.917,44.182c0-5.8,3.217-9.1,7.539-9.1,4.347,0,7.539,3.292,7.539,9.1s-3.191,9.1-7.539,9.1C658.134,53.279,654.917,49.987,654.917,44.182Zm10.981,0c0-4-1.407-5.654-3.443-5.654-2.01,0-3.418,1.659-3.418,5.654s1.407,5.654,3.418,5.654C664.491,49.836,665.9,48.177,665.9,44.182Z" transform="translate(-550.66 -34.331)" fill="#191919"/>
      <path id="Path_179" data-name="Path 179" d="M729.6,44.182c0-5.8,3.217-9.1,7.539-9.1,4.347,0,7.539,3.292,7.539,9.1s-3.191,9.1-7.539,9.1C732.821,53.279,729.6,49.987,729.6,44.182Zm10.981,0c0-4-1.407-5.654-3.443-5.654-2.01,0-3.418,1.659-3.418,5.654s1.407,5.654,3.418,5.654C739.178,49.836,740.585,48.177,740.585,44.182Z" transform="translate(-608.285 -34.331)" fill="#191919"/>
    </g>
    <circle id="Ellipse_18" data-name="Ellipse 18" cx="19.316" cy="19.316" r="19.316" transform="translate(-0.486 10.314)" fill="#ff9414"/>
    <g id="Group_179" data-name="Group 179" transform="translate(6.514 15.606)">
      <g id="Group_178" data-name="Group 178">
        <path id="Path_180" data-name="Path 180" d="M54.787,48.295a2.828,2.828,0,0,0-1.2-2.174,2.354,2.354,0,0,0,.666-1.648A2.379,2.379,0,0,0,51.88,42.1l-3.918-.1c-1.592-.016-5.222.249-5.934.3l-.011,0a.15.15,0,0,1-.132-.09,4.955,4.955,0,0,1,.311-.533l.875-1.328a5.357,5.357,0,0,0,1.159-3.195,15.429,15.429,0,0,0,0-1.785,2.251,2.251,0,0,0-2.312-1.889,2.177,2.177,0,0,0-2.206,1.529c-.077.363-.144.674-.188.885-.035.161-.053.241-.061.284a8.743,8.743,0,0,1-.773,1.754A19.258,19.258,0,0,1,35.661,40.2c-1.333.907-2.843,1.935-4.029,2.915a10.784,10.784,0,0,1-1.223.918.528.528,0,0,0,.552.9,11.607,11.607,0,0,0,1.36-1.019c1.13-.935,2.62-1.948,3.932-2.842a14.833,14.833,0,0,0,3.332-2.591,9.8,9.8,0,0,0,.889-2.013l.008-.027s.11-.508.262-1.22c.091-.434.667-.693,1.172-.693.573,0,1.215.369,1.258.918a13.636,13.636,0,0,1,0,1.638,4.328,4.328,0,0,1-.983,2.676l-.875,1.328c-.44.66-.492.923-.492,1.065a1.21,1.21,0,0,0,1.221,1.194h.019c.042,0,4.213-.326,5.878-.3l3.923.1a1.319,1.319,0,0,1,.52,2.537l-1.285.543,1.32.444a1.985,1.985,0,0,1,1.311,1.619,1.577,1.577,0,0,1-.846,1.4l-1.124.572,1.028.682a1.581,1.581,0,0,1-.6,2.7l-.588.343.069.685.171.139a1.41,1.41,0,0,1,.437,1.087c.006.861-1,1.057-2.854,1.116l-.12,0c.051-.037.1-.072.14-.107a5.288,5.288,0,0,0,1.932-4.1c0-2.663-1.847-4.83-4.118-4.83a4.259,4.259,0,0,0-3.927,3.38,4.256,4.256,0,0,0-3.927-3.38c-2.27,0-4.117,2.167-4.117,4.83a5.029,5.029,0,0,0,1.338,3.731,4.006,4.006,0,0,0,.57.452,3.37,3.37,0,0,1-2.473-.645c-.752-.7-.91-2.01-.471-3.891.294-1.248.672-2.7,1.1-4.2.678-1.821,1.154-3.226,1.411-4.178l.008-.051a1.055,1.055,0,0,0-.187-.731l-.225-.217-.214.064a.526.526,0,0,0-.307.118l-2.585,1.722-.026.019a.527.527,0,0,0-.046.747.544.544,0,0,0,.731.056l1.29-.859c-.164.532-.345,1.178-.565,1.977-.077.275-.156.565-.244.875-1.563,4.2-3.76,9.347-3.781,9.394a.528.528,0,1,0,.971.417c.03-.072.608-1.426,1.378-3.3A3.683,3.683,0,0,0,34,57.125c1.561,1.458,4.253.833,4.82.68a11.791,11.791,0,0,0,4.012.642,17.389,17.389,0,0,0,2.091-.132,21.924,21.924,0,0,0,2.24-.4,8.439,8.439,0,0,0,1.943.163l.351-.013c1.453-.048,3.887-.128,3.875-2.179a2.665,2.665,0,0,0-.4-1.413,2.627,2.627,0,0,0,.793-4.073A2.643,2.643,0,0,0,54.787,48.295ZM44.2,52.815c0-2.082,1.373-3.774,3.06-3.774s3.062,1.692,3.062,3.774A4.258,4.258,0,0,1,48.762,56.1a5.747,5.747,0,0,1-1.628.726,3.046,3.046,0,0,1-1.175-.536l-.375-.321A4.052,4.052,0,0,1,44.2,52.815ZM37.365,55.8l0,0a4.036,4.036,0,0,1-1.02-2.979c0-2.082,1.373-3.774,3.061-3.774s3.062,1.692,3.062,3.774A3.827,3.827,0,0,1,41.045,56a5.754,5.754,0,0,1-2.1.706A5.169,5.169,0,0,1,37.365,55.8Zm3.591,1.446a4.133,4.133,0,0,0,.682-.369,4.416,4.416,0,0,0,1.7-2.588,4.815,4.815,0,0,0,1.572,2.5l.374.318c.035.029.07.056.107.083A14.527,14.527,0,0,1,40.955,57.242Z" transform="translate(-30.156 -33.478)" fill="#fff"/>
      </g>
    </g>
  </g>
</svg>
